<svg xmlns="http://www.w3.org/2000/svg" viewBox="0 0 67.19 62.42"><defs><style>.cls-1{fill:#231f20;}.cls-2{fill:none;stroke:#231f20;stroke-linecap:round;stroke-miterlimit:10;stroke-width:5px;}</style></defs><g id="Layer_2" data-name="Layer 2"><g id="Layer_1-2" data-name="Layer 1"><g id="volume"><path class="cls-1" d="M34.33,62.05,9.68,43.65a1.74,1.74,0,0,0-1.09-.36l-6.45.1a2,2,0,0,1-1.9-2L0,21.78a2,2,0,0,1,1.85-2l6.45-.11a1.75,1.75,0,0,0,1.07-.38L33.57.39a1.87,1.87,0,0,1,3,1.61l.72,58.37A1.87,1.87,0,0,1,34.33,62.05Z"/><path class="cls-2" d="M46.61,15.68q9.26,15.53,0,31.05"/><path class="cls-2" d="M58.21,10.68q13,20.54,0,41.05"/></g></g></g></svg>